<mxfile host="app.diagrams.net" modified="2024-04-17T14:38:10.967Z" agent="Mozilla/5.0 (X11; Linux x86_64) AppleWebKit/537.36 (KHTML, like Gecko) Chrome/123.0.0.0 Safari/537.36" etag="deP5THZX_9n-txWlo7AJ" version="24.2.5" type="github">
  <diagram name="第 1 页" id="G36y-n_s_inngZZLfQaa">
    <mxGraphModel dx="2045" dy="774" grid="1" gridSize="10" guides="1" tooltips="1" connect="1" arrows="1" fold="1" page="1" pageScale="1" pageWidth="827" pageHeight="1169" math="0" shadow="0">
      <root>
        <mxCell id="0" />
        <mxCell id="1" parent="0" />
        <mxCell id="rycqD75MoV5-pm7j_D73-9" value="&lt;font style=&quot;font-size: 14px;&quot;&gt;DockerHub&lt;/font&gt;" style="shape=cylinder3;whiteSpace=wrap;html=1;boundedLbl=1;backgroundOutline=1;size=15;" vertex="1" parent="1">
          <mxGeometry x="370" y="740" width="140" height="140" as="geometry" />
        </mxCell>
        <mxCell id="rycqD75MoV5-pm7j_D73-10" value="&lt;font style=&quot;font-size: 14px;&quot;&gt;远程仓库(官方)&lt;/font&gt;&lt;div&gt;&lt;font style=&quot;font-size: 14px;&quot;&gt;(hub.docker.com&lt;/font&gt;&lt;span style=&quot;font-size: 14px; background-color: initial;&quot;&gt;)&lt;/span&gt;&lt;/div&gt;" style="text;html=1;align=center;verticalAlign=middle;whiteSpace=wrap;rounded=0;" vertex="1" parent="1">
          <mxGeometry x="414" y="890" width="60" height="30" as="geometry" />
        </mxCell>
        <mxCell id="rycqD75MoV5-pm7j_D73-36" style="edgeStyle=orthogonalEdgeStyle;rounded=0;orthogonalLoop=1;jettySize=auto;html=1;exitX=0;exitY=0.5;exitDx=0;exitDy=0;exitPerimeter=0;entryX=1;entryY=0.5;entryDx=0;entryDy=0;" edge="1" parent="1" source="rycqD75MoV5-pm7j_D73-11">
          <mxGeometry relative="1" as="geometry">
            <mxPoint x="-200" y="810" as="targetPoint" />
          </mxGeometry>
        </mxCell>
        <mxCell id="rycqD75MoV5-pm7j_D73-11" value="&lt;span style=&quot;font-size: 14px;&quot;&gt;Images&lt;/span&gt;" style="shape=cylinder3;whiteSpace=wrap;html=1;boundedLbl=1;backgroundOutline=1;size=15;" vertex="1" parent="1">
          <mxGeometry y="740" width="140" height="140" as="geometry" />
        </mxCell>
        <mxCell id="rycqD75MoV5-pm7j_D73-12" value="&lt;font style=&quot;font-size: 14px;&quot;&gt;本地仓库&lt;/font&gt;" style="text;html=1;align=center;verticalAlign=middle;whiteSpace=wrap;rounded=0;" vertex="1" parent="1">
          <mxGeometry x="40" y="890" width="60" height="30" as="geometry" />
        </mxCell>
        <mxCell id="rycqD75MoV5-pm7j_D73-13" style="edgeStyle=orthogonalEdgeStyle;rounded=0;orthogonalLoop=1;jettySize=auto;html=1;exitX=1;exitY=0;exitDx=0;exitDy=42.5;exitPerimeter=0;entryX=0;entryY=0;entryDx=0;entryDy=42.5;entryPerimeter=0;" edge="1" parent="1" source="rycqD75MoV5-pm7j_D73-11" target="rycqD75MoV5-pm7j_D73-9">
          <mxGeometry relative="1" as="geometry" />
        </mxCell>
        <mxCell id="rycqD75MoV5-pm7j_D73-14" style="edgeStyle=orthogonalEdgeStyle;rounded=0;orthogonalLoop=1;jettySize=auto;html=1;exitX=0;exitY=0;exitDx=0;exitDy=97.5;exitPerimeter=0;entryX=1;entryY=0;entryDx=0;entryDy=97.5;entryPerimeter=0;" edge="1" parent="1" source="rycqD75MoV5-pm7j_D73-9" target="rycqD75MoV5-pm7j_D73-11">
          <mxGeometry relative="1" as="geometry" />
        </mxCell>
        <mxCell id="rycqD75MoV5-pm7j_D73-15" value="&lt;font style=&quot;font-size: 14px;&quot;&gt;docker push&lt;/font&gt;" style="text;html=1;align=center;verticalAlign=middle;whiteSpace=wrap;rounded=0;" vertex="1" parent="1">
          <mxGeometry x="197.5" y="750" width="90" height="30" as="geometry" />
        </mxCell>
        <mxCell id="rycqD75MoV5-pm7j_D73-16" value="&lt;font style=&quot;font-size: 14px;&quot;&gt;docker pull&lt;/font&gt;" style="text;html=1;align=center;verticalAlign=middle;whiteSpace=wrap;rounded=0;" vertex="1" parent="1">
          <mxGeometry x="195" y="840" width="95" height="30" as="geometry" />
        </mxCell>
        <mxCell id="rycqD75MoV5-pm7j_D73-20" value="" style="shape=cylinder3;whiteSpace=wrap;html=1;boundedLbl=1;backgroundOutline=1;size=15;" vertex="1" parent="1">
          <mxGeometry x="370" y="980" width="140" height="140" as="geometry" />
        </mxCell>
        <mxCell id="rycqD75MoV5-pm7j_D73-21" value="&lt;font style=&quot;font-size: 14px;&quot;&gt;远程仓库(第三方)&lt;/font&gt;" style="text;html=1;align=center;verticalAlign=middle;whiteSpace=wrap;rounded=0;" vertex="1" parent="1">
          <mxGeometry x="380" y="1120" width="120" height="30" as="geometry" />
        </mxCell>
        <mxCell id="rycqD75MoV5-pm7j_D73-22" value="" style="shape=cylinder3;whiteSpace=wrap;html=1;boundedLbl=1;backgroundOutline=1;size=15;" vertex="1" parent="1">
          <mxGeometry x="370" y="515" width="140" height="140" as="geometry" />
        </mxCell>
        <mxCell id="rycqD75MoV5-pm7j_D73-23" value="&lt;font style=&quot;font-size: 14px;&quot;&gt;远程仓库(私有)&lt;/font&gt;" style="text;html=1;align=center;verticalAlign=middle;whiteSpace=wrap;rounded=0;" vertex="1" parent="1">
          <mxGeometry x="390" y="655" width="100" height="30" as="geometry" />
        </mxCell>
        <mxCell id="rycqD75MoV5-pm7j_D73-37" value="&lt;font style=&quot;font-size: 14px;&quot;&gt;docker run&lt;/font&gt;" style="text;html=1;align=center;verticalAlign=middle;whiteSpace=wrap;rounded=0;" vertex="1" parent="1">
          <mxGeometry x="-140" y="780" width="70" height="30" as="geometry" />
        </mxCell>
        <mxCell id="rycqD75MoV5-pm7j_D73-38" value="(推送镜像)" style="text;html=1;align=center;verticalAlign=middle;whiteSpace=wrap;rounded=0;" vertex="1" parent="1">
          <mxGeometry x="212.5" y="735" width="60" height="30" as="geometry" />
        </mxCell>
        <mxCell id="rycqD75MoV5-pm7j_D73-39" value="(拉取镜像)" style="text;html=1;align=center;verticalAlign=middle;whiteSpace=wrap;rounded=0;" vertex="1" parent="1">
          <mxGeometry x="213" y="855" width="60" height="30" as="geometry" />
        </mxCell>
        <mxCell id="rycqD75MoV5-pm7j_D73-40" value="(创建并启动容器)" style="text;html=1;align=center;verticalAlign=middle;whiteSpace=wrap;rounded=0;" vertex="1" parent="1">
          <mxGeometry x="-152.5" y="765" width="95" height="30" as="geometry" />
        </mxCell>
        <mxCell id="rycqD75MoV5-pm7j_D73-57" value="" style="swimlane;startSize=0;align=left;verticalAlign=middle;spacingLeft=4;spacingRight=4;fontFamily=Helvetica;fontSize=12;fontColor=default;fillColor=none;gradientColor=none;" vertex="1" parent="1">
          <mxGeometry x="-322" y="748" width="120" height="120" as="geometry">
            <mxRectangle x="-400" y="710" width="50" height="40" as="alternateBounds" />
          </mxGeometry>
        </mxCell>
        <mxCell id="rycqD75MoV5-pm7j_D73-59" value="&lt;font style=&quot;font-size: 14px;&quot;&gt;Container&lt;/font&gt;&lt;div&gt;&lt;font style=&quot;font-size: 14px;&quot;&gt;(new)&lt;/font&gt;&lt;/div&gt;" style="text;html=1;align=center;verticalAlign=middle;whiteSpace=wrap;rounded=0;fontFamily=Helvetica;fontSize=12;fontColor=default;" vertex="1" parent="rycqD75MoV5-pm7j_D73-57">
          <mxGeometry x="30" y="47" width="60" height="30" as="geometry" />
        </mxCell>
        <mxCell id="rycqD75MoV5-pm7j_D73-60" value="" style="swimlane;startSize=0;align=left;verticalAlign=middle;spacingLeft=4;spacingRight=4;fontFamily=Helvetica;fontSize=12;fontColor=default;fillColor=none;gradientColor=none;" vertex="1" parent="1">
          <mxGeometry x="-321" y="883" width="120" height="120" as="geometry">
            <mxRectangle x="-400" y="710" width="50" height="40" as="alternateBounds" />
          </mxGeometry>
        </mxCell>
        <mxCell id="rycqD75MoV5-pm7j_D73-61" value="&lt;font style=&quot;font-size: 14px;&quot;&gt;Container&lt;/font&gt;&lt;div&gt;&lt;font style=&quot;font-size: 14px;&quot;&gt;(exited)&lt;/font&gt;&lt;/div&gt;" style="text;html=1;align=center;verticalAlign=middle;whiteSpace=wrap;rounded=0;fontFamily=Helvetica;fontSize=12;fontColor=default;" vertex="1" parent="rycqD75MoV5-pm7j_D73-60">
          <mxGeometry x="30" y="47" width="60" height="30" as="geometry" />
        </mxCell>
        <mxCell id="rycqD75MoV5-pm7j_D73-62" value="" style="swimlane;startSize=0;align=left;verticalAlign=middle;spacingLeft=4;spacingRight=4;fontFamily=Helvetica;fontSize=12;fontColor=default;fillColor=none;gradientColor=none;" vertex="1" parent="1">
          <mxGeometry x="-322" y="614" width="121" height="126" as="geometry">
            <mxRectangle x="-400" y="710" width="50" height="40" as="alternateBounds" />
          </mxGeometry>
        </mxCell>
        <mxCell id="rycqD75MoV5-pm7j_D73-63" value="&lt;font style=&quot;font-size: 14px;&quot;&gt;Container&lt;/font&gt;&lt;div&gt;&lt;font style=&quot;font-size: 14px;&quot;&gt;(detach)&lt;/font&gt;&lt;/div&gt;" style="text;html=1;align=center;verticalAlign=middle;whiteSpace=wrap;rounded=0;fontFamily=Helvetica;fontSize=12;fontColor=default;" vertex="1" parent="rycqD75MoV5-pm7j_D73-62">
          <mxGeometry x="30" y="47" width="60" height="30" as="geometry" />
        </mxCell>
        <mxCell id="rycqD75MoV5-pm7j_D73-65" value="" style="endArrow=classic;html=1;rounded=0;fontFamily=Helvetica;fontSize=12;fontColor=default;entryX=1;entryY=0.5;entryDx=0;entryDy=0;" edge="1" parent="1" target="rycqD75MoV5-pm7j_D73-62">
          <mxGeometry width="50" height="50" relative="1" as="geometry">
            <mxPoint x="0.5" y="785" as="sourcePoint" />
            <mxPoint x="-82" y="740" as="targetPoint" />
          </mxGeometry>
        </mxCell>
        <mxCell id="rycqD75MoV5-pm7j_D73-67" value="" style="endArrow=classic;html=1;rounded=0;fontFamily=Helvetica;fontSize=12;fontColor=default;entryX=1;entryY=0.5;entryDx=0;entryDy=0;" edge="1" parent="1" target="rycqD75MoV5-pm7j_D73-60">
          <mxGeometry width="50" height="50" relative="1" as="geometry">
            <mxPoint y="840" as="sourcePoint" />
            <mxPoint x="-50" y="890" as="targetPoint" />
          </mxGeometry>
        </mxCell>
        <mxCell id="rycqD75MoV5-pm7j_D73-68" value="&lt;font style=&quot;font-size: 14px;&quot;&gt;docker container start&lt;/font&gt;" style="text;html=1;align=center;verticalAlign=middle;whiteSpace=wrap;rounded=0;fontFamily=Helvetica;fontSize=12;fontColor=default;rotation=-30;" vertex="1" parent="1">
          <mxGeometry x="-190" y="840" width="140" height="45" as="geometry" />
        </mxCell>
        <mxCell id="rycqD75MoV5-pm7j_D73-69" value="(启动退出的容器)" style="text;html=1;align=center;verticalAlign=middle;whiteSpace=wrap;rounded=0;fontFamily=Helvetica;fontSize=12;fontColor=default;rotation=-30;" vertex="1" parent="1">
          <mxGeometry x="-160.5" y="868" width="103" height="30" as="geometry" />
        </mxCell>
        <mxCell id="rycqD75MoV5-pm7j_D73-71" value="&lt;font style=&quot;font-size: 14px;&quot;&gt;docer run -d&lt;/font&gt;" style="text;html=1;align=center;verticalAlign=middle;whiteSpace=wrap;rounded=0;fontFamily=Helvetica;fontSize=12;fontColor=default;rotation=30;" vertex="1" parent="1">
          <mxGeometry x="-140" y="685" width="90" height="30" as="geometry" />
        </mxCell>
        <mxCell id="rycqD75MoV5-pm7j_D73-72" value="(后台启动容器)" style="text;html=1;align=center;verticalAlign=middle;whiteSpace=wrap;rounded=0;fontFamily=Helvetica;fontSize=12;fontColor=default;rotation=30;" vertex="1" parent="1">
          <mxGeometry x="-152.5" y="700" width="90" height="30" as="geometry" />
        </mxCell>
        <mxCell id="rycqD75MoV5-pm7j_D73-73" value="(127.0.0.1:xxxx/ 个人域名)" style="text;html=1;align=center;verticalAlign=middle;whiteSpace=wrap;rounded=0;fontFamily=Helvetica;fontSize=12;fontColor=default;" vertex="1" parent="1">
          <mxGeometry x="359" y="670" width="170" height="40" as="geometry" />
        </mxCell>
      </root>
    </mxGraphModel>
  </diagram>
</mxfile>
